# xmcd CD database file
#
# Track frame offsets:
#	187
#	21277
#	38217
#	59332
#
# Disc length: 1016 seconds
#
# Revision: 0
# Processed by: cddbd v1.5.1PL2 Copyright (c) Steve Scherf et al.
# Submitted via: CDex 1.51
#
DISCID=2e03f604
DTITLE=Ｍｉｓｔｙ　ｅｙｅｓ - Ｈｅｌｌｏ　Ｄｒｅａｍｓ
DYEAR=1995
DGENRE=JPop
TTITLE0=Ｈｅｌｌｏ　Ｄｒｅａｍｓ
TTITLE1=一瞬のゆめに抱かれて
TTITLE2=Ｈｅｌｌｏ　Ｄｒｅａｍｓ（ＫＡＲＡＯＫＥ）
TTITLE3=一瞬のゆめに抱かれて（ＫＡＲＡＯＫＥ）
EXTD=YEAR: 1995/4/21
EXTT0=
EXTT1=
EXTT2=
EXTT3=
PLAYORDER=
